<?xml version="1.0" ?><svg id="outline" viewBox="0 0 512 512" xmlns="http://www.w3.org/2000/svg"><path d="M240,232V184h40V168H144V136H280V120H72a7.99977,7.99977,0,0,0-8,8V408a7.99977,7.99977,0,0,0,8,8H208V400H144V368h64V352H144V232Zm-16-48v32H144V184Zm-96-48v80H80V136Zm0,264H80V368h48Zm0-48H80V232h48Z"/><rect height="16" width="24" x="72" y="80"/><rect height="16" width="56" x="112" y="80"/><rect height="16" width="32" x="72" y="440"/><rect height="16" width="32" x="120" y="440"/><path d="M480,436.68652V320a104.18068,104.18068,0,0,0-80-101.19977V205.3429A131.9639,131.9639,0,0,0,408,160a7.99977,7.99977,0,0,0-8-8V133.25488a39.73644,39.73644,0,0,0-11.71582-28.28418L311.0293,27.71582A39.73644,39.73644,0,0,0,282.74512,16H56A40.04521,40.04521,0,0,0,16,56V456a40.04521,40.04521,0,0,0,40,40H488a7.99977,7.99977,0,0,0,8-8V467.31348a35.07927,35.07927,0,0,0-10.34326-24.97022ZM325.42944,216.03265,320.34131,203.312A116.02731,116.02731,0,0,1,312.27148,168h79.457a116.02731,116.02731,0,0,1-8.06983,35.312l-5.08813,12.72064Q377.28881,216.00144,376,216H328Q326.71093,216,325.42944,216.03265ZM208,467.31348V480H56a24.0275,24.0275,0,0,1-24-24V56A24.0275,24.0275,0,0,1,56,32H282.74512A24.18911,24.18911,0,0,1,288,32.581V88a40.04521,40.04521,0,0,0,40,40h24V112H328a24.02687,24.02687,0,0,1-24-24V43.31348l72.9707,72.9707A23.84457,23.84457,0,0,1,384,133.25488V152H304a7.99977,7.99977,0,0,0-8,8,132.03708,132.03708,0,0,0,9.48584,49.25439l3.40466,8.512A104.16957,104.16957,0,0,0,224,320V436.68652l-5.65674,5.65625A35.08124,35.08124,0,0,0,208,467.31348ZM480,480H224V467.31348a19.18621,19.18621,0,0,1,5.65674-13.65674l8-8A7.99877,7.99877,0,0,0,240,440V320a88.09957,88.09957,0,0,1,88-88h48a88.09957,88.09957,0,0,1,88,88V432H432v16h36.6864l5.65686,5.65723A19.18424,19.18424,0,0,1,480,467.31348Z"/><path d="M363.544,352h-16a12,12,0,0,1,0-24h32V312h-16V296h-16v16a28,28,0,0,0,0,56h16a12,12,0,0,1,0,24h-40v16h24v12.74854h16V408a28,28,0,0,0,0-56Z"/></svg>