<svg id="_1933704_american_express_amex_charge_credit_card_payment_icon" data-name="1933704_american express_amex_charge_credit card_payment_icon" xmlns="http://www.w3.org/2000/svg" xmlns:xlink="http://www.w3.org/1999/xlink" width="34.854" height="21.784" viewBox="0 0 34.854 21.784">
  <defs>
    <clipPath id="clip-path">
      <path id="Path_108" data-name="Path 108" d="M13.9,24.934A1.639,1.639,0,0,1,15.534,23.3H47.12a1.639,1.639,0,0,1,1.634,1.634V43.45a1.639,1.639,0,0,1-1.634,1.634H15.534A1.639,1.639,0,0,1,13.9,43.45V24.934Z" transform="translate(-13.9 -23.3)"/>
    </clipPath>
    <clipPath id="clip-path-2">
      <path id="Path_109" data-name="Path 109" d="M67.584,68.088H65.841c-.163,0-.3,0-.381.082-.109.054-.136.163-.136.3a.3.3,0,0,0,.218.3,1.38,1.38,0,0,0,.354.054h.517a1.62,1.62,0,0,1,1.089.327.376.376,0,0,1,.082.109Zm0,2.641a1.473,1.473,0,0,1-1.307.517H64.425v-.871h1.852a.493.493,0,0,0,.381-.109.363.363,0,0,0,.109-.272.416.416,0,0,0-.109-.272.523.523,0,0,0-.327-.082c-.9-.027-2.015.027-2.015-1.253a1.205,1.205,0,0,1,1.361-1.2h1.906V66.4h-1.77a2.028,2.028,0,0,0-1.2.327V66.4H62a1.9,1.9,0,0,0-1.144.327V66.4H56.175v.327a2.477,2.477,0,0,0-1.28-.327h-3.1v.327a2.305,2.305,0,0,0-1.361-.327H47l-.79.9-.735-.844H40.3v5.582h5.065l.817-.871.762.871h3.131V70.729h.3a3.308,3.308,0,0,0,1.334-.191v1.5H54.3V70.593h.136c.163,0,.163,0,.163.163v1.28H62.41a2.388,2.388,0,0,0,1.307-.354v.354H66.2a3.861,3.861,0,0,0,1.416-.245V70.729Zm-3.839-1.607a1.093,1.093,0,0,1,.3.844c0,.871-.545,1.253-1.5,1.253H60.668v-.844h1.852a.493.493,0,0,0,.381-.109.363.363,0,0,0,.109-.272.416.416,0,0,0-.109-.272.562.562,0,0,0-.354-.082c-.9-.027-2.015.027-2.015-1.253a1.191,1.191,0,0,1,1.361-1.2H63.8v.844H62.056c-.191,0-.3,0-.381.082-.109.054-.136.163-.136.3a.3.3,0,0,0,.218.3,1.419,1.419,0,0,0,.381.054h.517A1.707,1.707,0,0,1,63.745,69.123Zm-8.632-.245a.88.88,0,0,1-.463.082H53.479v-.9H54.65a.833.833,0,0,1,.463.082.345.345,0,0,1,.191.354A.366.366,0,0,1,55.113,68.878Zm.6.49a1.065,1.065,0,0,1,.463.327,1.137,1.137,0,0,1,.163.735v.79h-.953v-.49c0-.245.027-.6-.163-.79a.96.96,0,0,0-.708-.191H53.479v1.47h-.953V67.244h2.206a2.339,2.339,0,0,1,1.144.191.958.958,0,0,1,.49.9A1.062,1.062,0,0,1,55.712,69.368Zm1.2-2.124H60.1v.844H57.863v.735h2.178v.817H57.863v.79H60.1v.844H56.91ZM50.457,69.1H49.2V68.088h1.253c.354,0,.572.136.572.49C51.056,68.905,50.811,69.1,50.457,69.1Zm-2.206,1.8-1.47-1.634,1.47-1.579Zm-3.785-.49H42.124v-.79h2.1V68.8h-2.1v-.735h2.4l1.035,1.171Zm7.6-1.852c0,1.116-.817,1.334-1.661,1.334H49.2V71.22H47.352l-1.171-1.334L44.956,71.22H41.171V67.244h3.839l1.171,1.307,1.225-1.307h3.05C51.219,67.244,52.063,67.462,52.063,68.551Z" transform="translate(-40.3 -66.4)"/>
    </clipPath>
    <clipPath id="clip-path-3">
      <path id="Path_110" data-name="Path 110" d="M18.477,44.35l-.654-1.607L17.17,44.35Zm14.432-.626a.88.88,0,0,1-.463.082H31.275v-.9h1.171a.833.833,0,0,1,.463.082.345.345,0,0,1,.191.354A.407.407,0,0,1,32.909,43.723Zm8.3.626-.654-1.607-.654,1.607ZM25.747,46.092h-.98V42.961l-1.389,3.131h-.844l-1.389-3.131v3.131H19.212l-.381-.9H16.843l-.381.9H15.427l1.715-4h1.416l1.634,3.785V42.09h1.552L23,44.813l1.144-2.723H25.72v4Zm3.894,0H26.455v-4h3.186v.844H27.408v.708h2.178v.817H27.408v.79h2.233Zm4.52-2.941a1.121,1.121,0,0,1-.681,1.062,1.065,1.065,0,0,1,.463.327,1.137,1.137,0,0,1,.163.735v.79h-.953v-.517c0-.245.027-.6-.163-.79-.136-.136-.354-.163-.708-.163H31.248v1.443h-.953V42.09H32.5a2.519,2.519,0,0,1,1.171.191A.915.915,0,0,1,34.161,43.152Zm.545,2.941h.98v-4h-.98Zm12.308,0H45.652l-1.824-3v3H41.867l-.381-.9H39.525l-.354.9H38.055a2.127,2.127,0,0,1-1.389-3.513,1.882,1.882,0,0,1,1.443-.463h.926v.844h-.9a.9.9,0,0,0-.735.245,1.308,1.308,0,0,0-.272.9,1.375,1.375,0,0,0,.272.953.868.868,0,0,0,.654.218h.436l1.361-3.159H41.3L42.9,45.9V42.09h1.47l1.688,2.777V42.09h.98v4Zm-31.613.79h1.634l.381-.9h.817l.354.9h3.24V46.2l.3.681h1.661l.272-.681v.681h8.005v-1.47h.163c.109,0,.136.027.136.191v1.28H36.5v-.354a3.062,3.062,0,0,0,1.525.354H39.77l.381-.9h.817l.354.9h3.349v-.844l.517.844h2.7V41.3H45.216v.654l-.381-.654H42.112v.654l-.354-.654H38.082a3.261,3.261,0,0,0-1.607.327V41.3H33.943v.327a1.578,1.578,0,0,0-1.089-.327H23.569l-.626,1.443L22.316,41.3H19.375v.654l-.327-.654H16.544L15.4,43.941Z" transform="translate(-15.4 -41.3)"/>
    </clipPath>
  </defs>
  <g id="Group_6" data-name="Group 6">
    <g id="Group_5" data-name="Group 5">
      <g id="Group_4" data-name="Group 4" clip-path="url(#clip-path)">
        <path id="Path_107" data-name="Path 107" d="M13.9,24.934A1.639,1.639,0,0,1,15.534,23.3H47.12a1.639,1.639,0,0,1,1.634,1.634V43.45a1.639,1.639,0,0,1-1.634,1.634H15.534A1.639,1.639,0,0,1,13.9,43.45V24.934Z" transform="translate(-13.9 -23.3)" fill="#246ea9"/>
      </g>
    </g>
  </g>
  <g id="Group_8" data-name="Group 8" transform="translate(7.189 11.736)">
    <g id="Group_7" data-name="Group 7" clip-path="url(#clip-path-2)">
      <rect id="Rectangle_38" data-name="Rectangle 38" width="30.007" height="8.305" transform="translate(-1.361 -1.307)" fill="#fffffe"/>
    </g>
  </g>
  <g id="Group_11" data-name="Group 11" transform="translate(0.408 4.901)">
    <g id="Group_10" data-name="Group 10">
      <g id="Group_9" data-name="Group 9" clip-path="url(#clip-path-3)">
        <rect id="Rectangle_39" data-name="Rectangle 39" width="35.18" height="8.305" transform="translate(-1.361 -1.361)" fill="#fffffe"/>
      </g>
    </g>
    <rect id="Rectangle_40" data-name="Rectangle 40" width="0.98" height="4.003" transform="translate(19.306 0.79)" fill="#246ea9"/>
  </g>
</svg>
