<svg xmlns="http://www.w3.org/2000/svg" width="34.215" height="22.451" viewBox="0 0 34.215 22.451">
  <g id="Icons" transform="translate(0.4 0.4)">
    <path id="Path_97" data-name="Path 97" d="M38.5,34.826H9.5a2.209,2.209,0,0,1-2.209-2.209V15.383A2.209,2.209,0,0,1,9.5,13.174h29a2.209,2.209,0,0,1,2.209,2.209V32.617A2.208,2.208,0,0,1,38.5,34.826Z" transform="translate(-7.293 -13.174)" fill="#f9f9f9"/>
    <path id="Path_98" data-name="Path 98" d="M38.5,34.826H9.5a2.209,2.209,0,0,1-2.209-2.209V15.383A2.209,2.209,0,0,1,9.5,13.174h29a2.209,2.209,0,0,1,2.209,2.209V32.617A2.208,2.208,0,0,1,38.5,34.826Z" transform="translate(-7.293 -13.174)" fill="none" stroke="#303030" stroke-linecap="round" stroke-linejoin="round" stroke-width="0.8"/>
    <path id="Path_99" data-name="Path 99" d="M10.356,26.2V21.8a.216.216,0,0,1,.048-.011c.487,0,.976-.016,1.461.017a2.126,2.126,0,0,1,1.825,1.069,2.2,2.2,0,0,1-1.611,3.285c-.387.046-.782.028-1.174.036C10.727,26.2,10.547,26.2,10.356,26.2Zm.865-.755c.163,0,.316.008.469,0a1.471,1.471,0,0,0,.923-.337,1.526,1.526,0,0,0,.074-2.142,1.8,1.8,0,0,0-1.466-.418Z" transform="translate(-7.293 -13.174)" fill="#303030"/>
    <path id="Path_100" data-name="Path 100" d="M34.748,21.8a.181.181,0,0,1,.036-.008c.487,0,.975,0,1.462.015a1.867,1.867,0,0,1,.508.1,1.172,1.172,0,0,1,.826,1.243,1.248,1.248,0,0,1-.356.876,1.273,1.273,0,0,1-.542.294l-.1.028L37.965,26.2h-.582c-.13,0-.259,0-.388,0a.15.15,0,0,1-.148-.081c-.359-.539-.72-1.075-1.08-1.614-.037-.055-.071-.1-.159-.067v1.752h-.861C34.748,24.727,34.748,23.266,34.748,21.8Zm.861,2.021a1.534,1.534,0,0,0,.78-.118.593.593,0,0,0,.3-.574.561.561,0,0,0-.309-.536,1.516,1.516,0,0,0-.772-.1C35.61,22.938,35.61,23.373,35.61,23.82Z" transform="translate(-7.293 -13.174)" fill="#303030"/>
    <path id="Path_101" data-name="Path 101" d="M31.747,21.794H34.17v.743H32.611v.974h1.5v.75h-1.5v1.184h1.564v.744H31.747C31.747,24.728,31.747,23.267,31.747,21.794Z" transform="translate(-7.293 -13.174)" fill="#303030"/>
    <path id="Path_102" data-name="Path 102" d="M18.45,22.213,18,22.8a.961.961,0,0,0-.575-.347.716.716,0,0,0-.633.184.381.381,0,0,0,.059.613,4.691,4.691,0,0,0,.487.233c.249.117.506.219.745.355a1.017,1.017,0,0,1,.516.907,1.4,1.4,0,0,1-.569,1.277,1.631,1.631,0,0,1-1.1.281,1.7,1.7,0,0,1-1.364-.813l.517-.553a3.349,3.349,0,0,0,.3.346.921.921,0,0,0,.86.205.6.6,0,0,0,.449-.7.5.5,0,0,0-.271-.353c-.161-.08-.331-.143-.5-.214s-.362-.142-.535-.228a1.068,1.068,0,0,1-.567-1.358,1.269,1.269,0,0,1,1.158-.9,1.9,1.9,0,0,1,1.424.449A.414.414,0,0,1,18.45,22.213Z" transform="translate(-7.293 -13.174)" fill="#303030"/>
    <path id="Path_103" data-name="Path 103" d="M27.128,21.789c.3,0,.594,0,.886,0,.027,0,.064.052.078.088q.456,1.138.907,2.279c.074.187.149.373.231.577.021-.046.036-.078.049-.11q.553-1.375,1.1-2.75a.114.114,0,0,1,.124-.089c.276,0,.552,0,.844,0-.017.044-.028.078-.042.11q-.91,2.161-1.819,4.323a.119.119,0,0,1-.135.088c-.1-.006-.2,0-.3,0a.133.133,0,0,1-.1-.06q-.917-2.2-1.827-4.408A.264.264,0,0,1,27.128,21.789Z" transform="translate(-7.293 -13.174)" fill="#303030"/>
    <path id="Path_104" data-name="Path 104" d="M22.277,22.96c-.138-.1-.257-.208-.389-.289a1.375,1.375,0,0,0-1.632.172,1.589,1.589,0,0,0,.063,2.367,1.428,1.428,0,0,0,1.809-.051l.149-.13v.157c0,.259,0,.518,0,.778a.1.1,0,0,1-.068.109,2.348,2.348,0,0,1-2.968-.808,2.3,2.3,0,0,1,1.478-3.52,2.171,2.171,0,0,1,1.482.185c.031.016.07.053.071.081C22.278,22.322,22.277,22.635,22.277,22.96Z" transform="translate(-7.293 -13.174)" fill="#303030"/>
    <path id="Path_105" data-name="Path 105" d="M27.111,24a2.171,2.171,0,1,1-2.168-2.117A2.121,2.121,0,0,1,27.111,24Z" transform="translate(-7.293 -13.174)" fill="#ff6f00"/>
    <path id="Path_106" data-name="Path 106" d="M15.232,26.192h-.849V21.8h.849Z" transform="translate(-7.293 -13.174)" fill="#303030"/>
  </g>
</svg>
