<svg id="card_x2C__credit_x2C__Mastercard_x2C___bank_x2C__debit_x2C_" xmlns="http://www.w3.org/2000/svg" width="33.875" height="21.172" viewBox="0 0 33.875 21.172">
  <g id="Group_1" data-name="Group 1">
    <path id="Path_59" data-name="Path 59" d="M49.877,126.037a1.135,1.135,0,0,1-1.133,1.133H17.135A1.135,1.135,0,0,1,16,126.037V107.13A1.135,1.135,0,0,1,17.135,106h31.61a1.135,1.135,0,0,1,1.133,1.133v18.907Z" transform="translate(-16.002 -105.997)" fill="#14477c"/>
    <path id="Path_60" data-name="Path 60" d="M233.7,182.079l.312-.006.312-.019.305-.045.3-.051.293-.07.293-.076.28-.1.28-.108.267-.121.261-.133.255-.147.248-.159.242-.172.229-.178.216-.191.216-.2.2-.21.191-.223.184-.229.172-.235.153-.248.153-.254.127-.261.127-.274.108-.274.1-.286.083-.287.07-.293.051-.306.038-.3.025-.312.006-.311-.006-.312-.025-.312-.038-.3-.051-.3-.07-.293-.083-.286-.1-.287-.108-.273-.127-.267-.127-.261-.153-.254-.153-.248-.172-.235-.184-.229-.191-.223-.2-.21-.216-.2-.216-.191-.229-.184-.242-.166-.248-.159-.255-.146-.261-.134-.267-.121-.28-.108-.28-.1-.293-.083-.293-.07-.3-.051-.305-.038-.312-.026-.312-.006-.312.006-.305.026-.306.038-.3.051-.293.07-.293.083-.28.1-.273.108-.267.121-.261.134-.254.146-.248.159-.235.166-.23.184-.223.191-.21.2-.2.21-.184.223-.185.229-.165.235-.159.248-.146.254-.134.261-.121.267-.108.273-.1.287-.083.286-.07.293-.05.3-.038.3-.026.312-.007.312.007.311.026.312.038.3.05.306.07.293.083.287.1.286.108.274.121.274.134.261.146.254.159.248.165.235.185.229.184.223.2.21.21.2.223.191.23.178.235.172.248.159.254.147.261.133.267.121.273.108.28.1.293.076.293.07.3.051.306.045.305.019Z" transform="translate(-212.701 -165.419)" fill="#fbb230"/>
    <path id="Path_61" data-name="Path 61" d="M118.22,182.079l.312-.006.305-.019.306-.045.3-.051.293-.07.293-.076.28-.1.273-.108.268-.121.261-.133.254-.147.248-.159.235-.172.23-.178.223-.191.21-.2.2-.21.185-.223.184-.229.165-.235.159-.248.146-.254.134-.261.121-.274.108-.274.1-.286.083-.287.07-.293.05-.306.038-.3.026-.312.006-.311-.006-.312-.026-.312-.038-.3-.05-.3-.07-.293-.083-.286-.1-.287-.108-.273-.121-.267-.134-.261-.146-.254-.159-.248-.165-.235-.184-.229-.185-.223-.2-.21-.21-.2-.223-.191-.23-.184-.235-.166-.248-.159-.254-.146-.261-.134-.268-.121-.273-.108-.28-.1-.293-.083-.293-.07-.3-.051-.306-.038-.305-.026-.312-.006-.312.006-.312.026-.305.038-.3.051-.292.07-.293.083-.28.1-.28.108-.267.121-.261.134-.255.146-.248.159-.242.166-.23.184-.216.191-.216.2-.2.21-.191.223-.184.229-.172.235-.153.248-.153.254-.127.261-.127.267-.108.273-.1.287-.083.286-.063.293-.058.3-.038.3-.026.312-.006.312.006.311.026.312.038.3.058.306.063.293.083.287.1.286.108.274.127.274.127.261.153.254.153.248.172.235.184.229.191.223.2.21.216.2.216.191.23.178.242.172.248.159.255.147.261.133.267.121.28.108.28.1.293.076.292.07.3.051.305.045.312.019Z" transform="translate(-105.346 -165.419)" fill="#eb2230"/>
    <path id="Path_62" data-name="Path 62" d="M245.943,198.574h3.227v-.331h-2.947Z" transform="translate(-229.715 -191.733)" fill="#fbb230"/>
    <path id="Path_63" data-name="Path 63" d="M239.091,208.944h3.71v-.331h-3.52Z" transform="translate(-223.347 -201.371)" fill="#fbb230"/>
    <path id="Path_64" data-name="Path 64" d="M233.952,219.314h4.073v-.331H234.1Z" transform="translate(-218.57 -211.009)" fill="#fbb230"/>
    <path id="Path_65" data-name="Path 65" d="M230.434,229.77h4.321v-.324h-4.22Z" transform="translate(-215.301 -220.734)" fill="#fbb230"/>
    <path id="Path_66" data-name="Path 66" d="M231.169,280h4.188v-.331h-4.289Z" transform="translate(-215.89 -267.414)" fill="#fbb230"/>
    <path id="Path_67" data-name="Path 67" d="M234.826,290.371h3.882v-.331h-4.035Z" transform="translate(-219.241 -277.051)" fill="#fbb230"/>
    <path id="Path_68" data-name="Path 68" d="M240.293,300.742h3.443v-.331h-3.653Z" transform="translate(-224.269 -286.691)" fill="#fbb230"/>
    <path id="Path_69" data-name="Path 69" d="M247.684,311.111h2.845v-.331h-3.137Z" transform="translate(-231.061 -296.328)" fill="#fbb230"/>
    <path id="Path_70" data-name="Path 70" d="M228.363,240.136h4.468v-.325h-4.4Z" transform="translate(-213.376 -230.367)" fill="#fbb230"/>
    <path id="Path_71" data-name="Path 71" d="M266.954,269.631h1.706V269.3h-1.642Z" transform="translate(-249.243 -257.775)" fill="#fbb230"/>
    <path id="Path_72" data-name="Path 72" d="M268.846,259.261h1.572v-.331H268.91Z" transform="translate(-251.002 -248.137)" fill="#fbb230"/>
    <path id="Path_73" data-name="Path 73" d="M226.736,258.93h.445v.331h-.42Z" transform="translate(-211.864 -248.137)" fill="#fbb230"/>
    <path id="Path_74" data-name="Path 74" d="M387.808,304.379a.289.289,0,0,1,.287.286.286.286,0,1,1-.573,0,.289.289,0,0,1,.286-.286Zm0,.051a.239.239,0,1,1-.236.235.24.24,0,0,1,.236-.235Z" transform="translate(-361.303 -290.378)" fill="#fbb230"/>
    <path id="Path_75" data-name="Path 75" d="M390.049,307.054v-.242h.1a.139.139,0,0,1,.057.007.088.088,0,0,1,.025.019.1.1,0,0,1,.013.038.077.077,0,0,1-.013.045.126.126,0,0,1-.051.025.11.11,0,0,1,.051.057l.032.051h-.057l-.039-.057a.07.07,0,0,0-.025-.032c0-.006-.007-.006-.013-.013H390.1v.1Zm.05-.14h.032c.025,0,.038,0,.044-.006s.013,0,.013-.007a.033.033,0,0,0,0-.038c-.007-.007-.013-.007-.02-.013h-.07v.064Z" transform="translate(-363.651 -292.64)" fill="#fbb230"/>
    <path id="Path_76" data-name="Path 76" d="M386.909,270.472a.286.286,0,1,1-.286.287.285.285,0,0,1,.286-.287Zm0,.051a.239.239,0,1,1-.242.236.24.24,0,0,1,.242-.236Z" transform="translate(-360.467 -258.864)" fill="#fff"/>
    <path id="Path_77" data-name="Path 77" d="M389.143,273.141V272.9h.1a.139.139,0,0,1,.057.007c.007,0,.019.013.025.019a.087.087,0,0,1,.013.038.056.056,0,0,1-.019.044c-.006.013-.025.019-.044.026.007.006.019.013.026.019a.307.307,0,0,1,.025.038l.032.045H389.3l-.038-.051c-.013-.019-.019-.032-.026-.032s-.006-.013-.012-.013h-.038v.1h-.045Zm.045-.134h.038c.025,0,.038,0,.044-.007a.023.023,0,0,0,.013-.007.023.023,0,0,0,.006-.019.067.067,0,0,0-.006-.019c-.007-.006-.013-.013-.019-.013h-.076v.064Z" transform="translate(-362.809 -261.126)" fill="#fff"/>
    <path id="Path_78" data-name="Path 78" d="M332.7,248.382l.414-2.163h.515l.064.223a.742.742,0,0,1,.573-.223l-.159.573c-.14,0-.357-.026-.534.394a7.283,7.283,0,0,0-.268,1.2Z" transform="translate(-310.345 -236.323)" fill="#fff"/>
    <path id="Path_79" data-name="Path 79" d="M216.12,238.554h.572l-.127.573h.318l-.1.445H216.5l-.159.859c-.032.159,0,.318.318.254l-.063.478a.579.579,0,0,1-.923-.573Z" transform="translate(-201.572 -229.199)" fill="#fff"/>
    <path id="Path_80" data-name="Path 80" d="M233.375,247.428c.064-.35.223-1.209-.8-1.209a1.1,1.1,0,0,0-1.082,1.081.938.938,0,0,0,.987,1.082,2.682,2.682,0,0,0,.77-.1l.1-.446a3.165,3.165,0,0,1-.674.064c-.223,0-.6,0-.541-.477h1.247Z" transform="translate(-216.275 -236.323)" fill="#fff"/>
    <path id="Path_81" data-name="Path 81" d="M123.8,242.512l.509-2.609h-.993l-.7,1.591-.127-1.591h-.923l-.509,2.609h.573l.382-1.877.159,1.877h.541l.827-1.846-.35,1.846Z" transform="translate(-113.638 -230.453)" fill="#fff"/>
    <path id="Path_82" data-name="Path 82" d="M164.257,246.406l-.1.477c.159,0,.541-.064.732-.064s.445-.032.35.287c-.159,0-1.209-.159-1.369.764-.089.611.637.834,1.082.541l.064.127h.541l.223-1.177c.235-1.063-.789-1.082-1.527-.954Z" transform="translate(-153.432 -236.447)" fill="#fff"/>
    <path id="Path_83" data-name="Path 83" d="M281.251,240.519a.663.663,0,0,0-.42-.089.735.735,0,0,0-.656.655c-.089.6.3.866.865.688l.153.509c-.967.484-1.891-.267-1.585-1.438.248-.885,1.419-1.419,2-.687Z" transform="translate(-260.95 -230.369)" fill="#fff"/>
    <path id="Path_84" data-name="Path 84" d="M354.151,238.925c-1.559-1.171-2.164,1.909-.955,1.909a1.2,1.2,0,0,0,.509-.159l.063.159h.637l.509-2.736h-.6Z" transform="translate(-328.804 -228.775)" fill="#fff"/>
    <path id="Path_85" data-name="Path 85" d="M305.033,246.406l-.1.477c.159,0,.541-.064.731-.064s.414-.032.35.287c-.159,0-1.209-.159-1.368.764a.587.587,0,0,0,.6.668.711.711,0,0,0,.477-.127l.064.127h.541l.223-1.177c.242-1.063-.783-1.082-1.527-.954Z" transform="translate(-284.274 -236.447)" fill="#fff"/>
    <path id="Path_86" data-name="Path 86" d="M240.625,252.318h.732c.083-.579-.611-.464-.732,0Z" transform="translate(-224.773 -241.627)" fill="#eb2230"/>
    <path id="Path_87" data-name="Path 87" d="M173.029,263.14a.771.771,0,0,0-.51.064c-.19.127-.254.35-.031.413a.433.433,0,0,0,.509-.255Z" transform="translate(-161.313 -252.035)" fill="#eb2230"/>
    <path id="Path_88" data-name="Path 88" d="M361.136,253.292c-.191-.255-.6-.063-.732.413-.1.318.1.541.287.541.4,0,.643-.655.445-.955Z" transform="translate(-336.075 -242.792)" fill="#fbb230"/>
    <path id="Path_89" data-name="Path 89" d="M314.245,263.14a.77.77,0,0,0-.509.064c-.19.127-.254.35-.031.413a.417.417,0,0,0,.509-.255Z" transform="translate(-292.563 -252.035)" fill="#fbb230"/>
    <path id="Path_90" data-name="Path 90" d="M258.3,248.831l.032-.223.382-1.941h.509l.063.223a.744.744,0,0,1,.573-.223l-.159.573c-.121,0-.376-.026-.567.484a7.768,7.768,0,0,0-.229,1.107Z" transform="translate(-241.196 -236.74)" fill="#fff"/>
    <path id="Path_91" data-name="Path 91" d="M193.369,247.7h-.051l-.025-.006-.026-.006h-.026l-.025-.007a1.844,1.844,0,0,0-.324-.013c-.293.025-.42.21-.172.35.2.115.35.1.484.223a.658.658,0,0,1-.178.98l-.057.026-.064.026-.07.019-.063.019a2.3,2.3,0,0,1-1.019-.063l.083-.427c.242.051.637.159.821.032.21-.14.019-.306-.134-.376l-.076-.025-.076-.032a.6.6,0,0,1,.108-1.158,2.3,2.3,0,0,1,.694-.032h.044a1.177,1.177,0,0,1,.159.025h.025l.019.007h.019l.013.006h.019l-.1.433Z" transform="translate(-179.35 -237.255)" fill="#fff"/>
  </g>
</svg>
