<svg id="_2953843_card_cards_credit_payment_transaction_icon" data-name="2953843_card_cards_credit_payment_transaction_icon" xmlns="http://www.w3.org/2000/svg" width="35.55" height="30.273" viewBox="0 0 35.55 30.273">
  <path id="Path_41" data-name="Path 41" d="M27.418,29.358H2.622A2.633,2.633,0,0,1,0,26.719V12.138A2.633,2.633,0,0,1,2.622,9.5h24.8a2.633,2.633,0,0,1,2.622,2.638V26.719a2.633,2.633,0,0,1-2.622,2.638ZM2.622,10.611a1.522,1.522,0,0,0-1.511,1.528V26.719a1.522,1.522,0,0,0,1.511,1.528h24.8a1.522,1.522,0,0,0,1.511-1.528V12.138a1.522,1.522,0,0,0-1.511-1.528Z" transform="translate(0 -9.5)"/>
  <path id="Path_42" data-name="Path 42" d="M29.484,25.111H.555A.555.555,0,1,1,.555,24H29.484a.555.555,0,1,1,0,1.111Z" transform="translate(0 -19.973)"/>
  <path id="Path_43" data-name="Path 43" d="M75.639,55.68H70.551a1.111,1.111,0,0,1-1.111-1.111V51.861a1.111,1.111,0,0,1,1.111-1.111h5.088a1.111,1.111,0,0,1,1.111,1.111v2.708A1.111,1.111,0,0,1,75.639,55.68Zm-5.088-3.819v2.708h5.088V51.861Z" transform="translate(-50.154 -39.294)"/>
  <path id="Path_44" data-name="Path 44" d="M47.258,66.858h-24.8a2.633,2.633,0,0,1-2.622-2.638V57.879a.555.555,0,0,1,1.111,0v6.341a1.522,1.522,0,0,0,1.511,1.528h24.8a1.522,1.522,0,0,0,1.511-1.528V49.638a1.522,1.522,0,0,0-1.511-1.528H45.73a.555.555,0,1,1,0-1.111h1.528a2.633,2.633,0,0,1,2.622,2.638V64.219A2.633,2.633,0,0,1,47.258,66.858Z" transform="translate(-14.33 -36.585)"/>
  <path id="Path_45" data-name="Path 45" d="M37.606,101.111h-2.58a.555.555,0,1,1,0-1.111h2.58a.555.555,0,0,1,0,1.111Z" transform="translate(-24.897 -74.865)"/>
  <path id="Path_46" data-name="Path 46" d="M55.6,101.111h-2.58a.555.555,0,0,1,0-1.111H55.6a.555.555,0,0,1,0,1.111Z" transform="translate(-37.89 -74.865)"/>
  <path id="Path_47" data-name="Path 47" d="M73.576,101.111H71A.555.555,0,0,1,71,100h2.58a.555.555,0,1,1,0,1.111Z" transform="translate(-50.876 -74.865)"/>
  <path id="Path_48" data-name="Path 48" d="M91.556,101.111h-2.58a.555.555,0,0,1,0-1.111h2.58a.555.555,0,1,1,0,1.111Z" transform="translate(-63.863 -74.865)"/>
  <path id="Path_49" data-name="Path 49" d="M29.484,37.111H.555A.555.555,0,1,1,.555,36H29.484a.555.555,0,1,1,0,1.111Z" transform="translate(0 -28.64)"/>
</svg>
