<svg id="_x33_63-visa_x2C__Credit_card" xmlns="http://www.w3.org/2000/svg" width="30.273" height="23.546" viewBox="0 0 30.273 23.546">
  <g id="Group_3" data-name="Group 3">
    <path id="Path_92" data-name="Path 92" d="M56.274,79.634v18.5a2.523,2.523,0,0,1-2.523,2.523H28.524A2.523,2.523,0,0,1,26,98.134v-18.5a2.523,2.523,0,0,1,2.523-2.523H53.751A2.523,2.523,0,0,1,56.274,79.634Z" transform="translate(-26.001 -77.111)" fill="#0353a5"/>
    <g id="Group_2" data-name="Group 2" transform="translate(1.682 7.416)">
      <path id="Path_93" data-name="Path 93" d="M338.381,192.111h-1.635a1.04,1.04,0,0,0-1.1.678l-3.138,7.489h2.218s.363-1.009.441-1.224h2.712c.063.289.252,1.224.252,1.224h1.955Zm-2.607,5.271c.174-.468.841-2.286.841-2.286-.01.016.173-.478.279-.783l.147.7s.4,1.955.489,2.365h-1.755Z" transform="translate(-314.015 -191.958)" fill="#fff"/>
      <path id="Path_94" data-name="Path 94" d="M58.977,192.111l-2.065,5.571-.226-1.13L55.95,192.8a.879.879,0,0,0-.957-.688h-3.4l-.037.163a8.343,8.343,0,0,1,2.218.9l1.882,7.1h2.234l3.322-8.157H58.977Z" transform="translate(-51.556 -191.958)" fill="#fff"/>
      <path id="Path_95" data-name="Path 95" d="M192.471,192.111l-1.319,8.167h2.108l1.324-8.167Z" transform="translate(-181.965 -191.958)" fill="#fff"/>
      <path id="Path_96" data-name="Path 96" d="M247.484,193.221c-.741-.373-1.193-.625-1.193-1.009.01-.347.384-.7,1.214-.7a3.622,3.622,0,0,1,1.571.31l.189.089.289-1.766a5.247,5.247,0,0,0-1.892-.347c-2.086,0-3.553,1.114-3.563,2.7-.016,1.172,1.051,1.824,1.85,2.218.815.4,1.093.662,1.093,1.014-.01.547-.662.8-1.267.8a4.211,4.211,0,0,1-1.981-.436l-.279-.132-.294,1.834a6.448,6.448,0,0,0,2.355.436c2.218.005,3.663-1.093,3.679-2.786C249.266,194.514,248.7,193.8,247.484,193.221Z" transform="translate(-230.608 -189.794)" fill="#fff"/>
    </g>
  </g>
</svg>
