<svg id="_1729868_bank_bank_to_bank_connection_exchange_network_icon" data-name="1729868_bank_bank to bank_connection_exchange_network_icon" xmlns="http://www.w3.org/2000/svg" width="29.78" height="26.164" viewBox="0 0 29.78 26.164">
  <path id="_1729868_bank_bank_to_bank_connection_exchange_network_icon-2" data-name="1729868_bank_bank to bank_connection_exchange_network_icon" d="M14.684,15.922c-2.087-1.165-4.175-2.33-6.262-3.544a.72.72,0,0,0-.631,0c-.534.291-1.019.582-1.553.874-1.553.874-3.155,1.8-4.708,2.67a.369.369,0,0,0-.243.437v.388c0,.291.1.388.388.388H2.6a.383.383,0,0,0,.388.388H3.18v.1c0,.34-.049.728-.049,1.068l-.049.631c-.049.777-.1,1.6-.146,2.427a1.991,1.991,0,0,1-.049.534v.1a.767.767,0,0,0-.777.777.8.8,0,0,0,.243.582.663.663,0,0,0,.534.194H13.374a.8.8,0,1,0,0-1.6h-.146c-.049-.68-.1-1.359-.1-1.99,0-.291-.049-.534-.049-.825-.049-.582-.049-1.165-.1-1.8v-.194h.146a.383.383,0,0,0,.388-.388h.971c.291,0,.388-.1.388-.388v-.388a.365.365,0,0,0-.194-.437Zm-4.369,4.563a1.594,1.594,0,0,1-1.262,1.359c-.1.049-.243.049-.34.1l-.194.049v.485H7.84v-.485h-.1C6.432,21.7,5.8,21.019,5.9,20H7.112v.243a.851.851,0,0,0,.825.825h.291a.692.692,0,0,0,.728-.534.81.81,0,0,0-.291-.971,2.267,2.267,0,0,0-.485-.243H8.131c-.049-.049-.146-.049-.194-.1a2.862,2.862,0,0,1-.388-.194,4.44,4.44,0,0,1-.825-.437,1.659,1.659,0,0,1-.68-1.5,1.641,1.641,0,0,1,.922-1.408,2.055,2.055,0,0,1,.582-.194c.049,0,.146-.049.194-.049l.1-.049v-.534h.68v.582h.1a1.987,1.987,0,0,1,1.359.874,1.662,1.662,0,0,1,.243,1.068H9v-.146c0-.1-.049-.194-.049-.34a.748.748,0,0,0-.777-.534.657.657,0,0,0-.728.485.8.8,0,0,0,.243.971,3.262,3.262,0,0,0,.582.291c.1.049.146.049.243.1s.243.1.34.146a2.966,2.966,0,0,1,.68.34,1.672,1.672,0,0,1,.777,1.8ZM30.8,15.922c-2.087-1.165-4.175-2.33-6.262-3.544a.72.72,0,0,0-.631,0c-.534.291-1.019.582-1.553.874-1.553.874-3.155,1.8-4.708,2.67a.369.369,0,0,0-.243.437v.388c0,.291.1.388.388.388h.922a.383.383,0,0,0,.388.388H19.3v.1c0,.34-.049.728-.049,1.068l-.049.631c-.049.777-.1,1.6-.146,2.427a1.991,1.991,0,0,1-.049.534v.1h-.146a.767.767,0,0,0-.777.777.829.829,0,0,0,.825.825H29.392a.8.8,0,1,0,0-1.6h-.146c-.049-.68-.1-1.359-.1-1.99,0-.291-.049-.534-.049-.825-.049-.582-.049-1.165-.1-1.8v-.194H29.3a.383.383,0,0,0,.388-.388v-.049h.971c.291,0,.388-.1.388-.388v-.388c.049-.243-.049-.34-.243-.437Zm-4.369,4.563a1.594,1.594,0,0,1-1.262,1.359c-.1.049-.243.049-.34.1l-.146.049v.485h-.728v-.485h-.1c-1.311-.291-1.942-.971-1.845-1.99h1.214v.243a.851.851,0,0,0,.825.825h.291a.692.692,0,0,0,.728-.534.81.81,0,0,0-.291-.971,2.267,2.267,0,0,0-.485-.243h-.049c-.049-.049-.146-.049-.194-.1a2.862,2.862,0,0,1-.388-.194,4.44,4.44,0,0,1-.825-.437,1.659,1.659,0,0,1-.68-1.5,1.641,1.641,0,0,1,.922-1.408,2.055,2.055,0,0,1,.582-.194c.049,0,.146-.049.194-.049l.1-.049v-.534h.68v.582h.1a1.987,1.987,0,0,1,1.359.874,1.662,1.662,0,0,1,.243,1.068H25.121v-.146c0-.1-.049-.194-.049-.34a.748.748,0,0,0-.777-.534.657.657,0,0,0-.728.485.8.8,0,0,0,.243.971,3.262,3.262,0,0,0,.582.291c.1.049.146.049.243.1s.243.1.34.146a2.966,2.966,0,0,1,.68.34,1.545,1.545,0,0,1,.777,1.8Zm-1.311,5.631a.529.529,0,0,0-.68.1,10.277,10.277,0,0,1-8.3,4.077,10.27,10.27,0,0,1-7.572-3.252l2.233.194a.52.52,0,0,0,.534-.437.482.482,0,0,0-.437-.534L8.034,25.97a1.114,1.114,0,0,0-.68.194,1.015,1.015,0,0,0-.34.631l-.194,2.864a.479.479,0,0,0,.437.485h.049a.516.516,0,0,0,.485-.437l.146-2.039A11.367,11.367,0,0,0,25.169,26.7.367.367,0,0,0,25.121,26.115ZM7.257,10.048a.69.69,0,0,0,.291.1.441.441,0,0,0,.388-.194,10.454,10.454,0,0,1,15.824-.777l-2.233-.146a.462.462,0,0,0-.049.922l2.864.194h.049a1.38,1.38,0,0,0,.582-.194.783.783,0,0,0,.291-.631l.146-2.864a.462.462,0,1,0-.922-.049l-.1,2.136A11.357,11.357,0,0,0,7.16,9.417a.46.46,0,0,0,.1.631Z" transform="translate(-1.275 -5)" fill="#111212"/>
</svg>
